<svg xmlns="http://www.w3.org/2000/svg" viewBox="0 0 64.07 64.12"><defs><style>.cls-1{fill:#e8d3ba;}.cls-2{fill:#ff2400;}.cls-3{fill:#ba1d08;}.cls-4{opacity:0.15;}</style></defs><title>Tool Paintbrush</title><g id="Layer_2" data-name="Layer 2"><g id="Layer_1-2" data-name="Layer 1"><path class="cls-1" d="M2.57,34.1h32a0,0,0,0,1,0,0V55a2,2,0,0,1-2,2h-28a2,2,0,0,1-2-2V34.1a0,0,0,0,1,0,0Z" transform="translate(37.64 0.2) rotate(45)"/><path class="cls-2" d="M49.32,31a6.21,6.21,0,0,1,.46-9.2L60.2,13.25a12.55,12.55,0,0,0,2.88-3.38A6.67,6.67,0,0,0,63,2.7a6.36,6.36,0,0,0-8-2,12.6,12.6,0,0,0-4.06,3.25L42.34,14.34a6.21,6.21,0,0,1-9.2.46,4.57,4.57,0,0,0-6.47,0L15.35,26.13,38,48.77,49.32,37.45A4.57,4.57,0,0,0,49.32,31ZM55.79,8.33a2.29,2.29,0,1,1,3.24,0A2.29,2.29,0,0,1,55.79,8.33Z"/><rect class="cls-3" x="10.66" y="32.87" width="32.03" height="9.15" transform="translate(34.29 -7.89) rotate(45)"/><g class="cls-4"><rect x="-0.27" y="38.49" width="18.3" height="1.14" transform="translate(-25.02 17.72) rotate(-45)"/></g><g class="cls-4"><rect x="2.96" y="41.73" width="18.3" height="1.14" transform="translate(-26.36 20.95) rotate(-45)"/></g><g class="cls-4"><rect x="11.05" y="49.82" width="18.3" height="1.14" transform="translate(-29.71 29.04) rotate(-45)"/></g><g class="cls-4"><rect x="15.9" y="54.67" width="18.3" height="1.14" transform="translate(-31.72 33.89) rotate(-45)"/></g></g></g></svg>